<svg width="439" height="109" viewBox="0 0 439 109" fill="none" xmlns="http://www.w3.org/2000/svg">
<path d="M37.9724 8.74205L400.777 0.288402C408.065 0.118585 414.547 4.89667 416.54 11.9088L438.133 87.8637C441.06 98.1586 433.25 108.369 422.548 108.238L16.2609 103.272C5.32248 103.138 -2.25916 92.3124 1.3548 81.9874L23.2434 19.4518C25.4444 13.1635 31.3118 8.89724 37.9724 8.74205Z" fill="url(#paint0_linear_2653_18)"/>
<path d="M400.812 1.78799L38.0073 10.2416C31.9711 10.3823 26.6539 14.2486 24.6592 19.9474L2.77057 82.483C-0.504578 91.84 6.3663 101.651 16.2792 101.772L422.566 106.738C432.265 106.856 439.343 97.6036 436.691 88.2739L415.097 12.319C413.291 5.96424 407.417 1.6341 400.812 1.78799Z" stroke="white" stroke-opacity="0.62" stroke-width="3"/>
<defs>
<linearGradient id="paint0_linear_2653_18" x1="172.787" y1="0" x2="172.787" y2="92.735" gradientUnits="userSpaceOnUse">
<stop stop-color="#6EF4C4"/>
<stop offset="1" stop-color="#009289"/>
</linearGradient>
</defs>
</svg>
