<svg width="264" height="264" viewBox="0 0 264 264" fill="none" xmlns="http://www.w3.org/2000/svg">
<path d="M0 12C0 5.37259 5.37258 0 12 0H252C258.627 0 264 5.37258 264 12V252C264 258.627 258.627 264 252 264H228.797C221.421 264 215.791 257.408 216.945 250.122L218.397 240.959C219.572 233.544 213.725 226.883 206.22 227.086L68.4927 230.815C63.7223 230.945 59.4818 233.888 57.6927 238.312L50.3381 256.499C48.5048 261.032 44.1037 264 39.2134 264H12C5.37258 264 0 258.627 0 252V12Z" fill="black"/>
</svg>
