<svg width="22" height="18" viewBox="0 0 22 18" fill="none" xmlns="http://www.w3.org/2000/svg">
<path d="M4.3419 10.2359L4.34191 10.2359C5.4272 11.4976 7.04735 12.8289 8.95237 14.3931L8.95487 14.3951L8.95698 14.3968C9.57538 14.9046 10.2719 15.4765 10.9987 16.0868C11.7295 15.4753 12.4271 14.9024 13.047 14.3937C14.9524 12.8291 16.5728 11.4978 17.6582 10.2359C18.773 8.9399 19.2475 7.81577 19.2475 6.57362C19.2475 5.38137 18.8318 4.30085 18.0884 3.52392C17.3569 2.75953 16.3498 2.3364 15.2475 2.3364C14.4463 2.3364 13.713 2.58069 13.062 3.06564C12.4781 3.50083 12.0671 4.05496 11.8239 4.44745L11.6114 4.31579L11.8239 4.44746C11.6471 4.73292 11.3368 4.90043 11 4.90043C10.6632 4.90043 10.3529 4.73292 10.1761 4.44746L10.176 4.4474C9.93306 4.05497 9.52206 3.50085 8.93801 3.06567C8.28701 2.5807 7.55368 2.3364 6.75264 2.3364C5.65017 2.3364 4.64327 2.75951 3.91165 3.52392L4.3419 10.2359ZM4.3419 10.2359C3.22702 8.9399 2.75249 7.81577 2.75249 6.57362C2.75249 5.38138 3.16821 4.30087 3.91163 3.52394L4.3419 10.2359ZM7.90638 15.6084L7.90637 15.6084L7.90831 15.61C8.56985 16.1531 9.31838 16.7677 10.0946 17.4217C10.3465 17.6342 10.668 17.75 11 17.75C11.3318 17.75 11.6535 17.6342 11.9052 17.422C12.6832 16.7665 13.4329 16.1509 14.0956 15.6069L14.0957 15.6069L14.1111 15.5942C16.0379 14.0122 17.7261 12.6261 18.9054 11.255C20.236 9.70825 20.875 8.21681 20.875 6.57362C20.875 4.99028 20.3112 3.52098 19.2787 2.4419L19.098 2.61474L19.2787 2.44189C18.2334 1.34963 16.7999 0.75 15.2475 0.75C14.0822 0.75 13.0122 1.10601 12.0736 1.80541C11.6831 2.09636 11.3242 2.4402 11 2.83219C10.6759 2.44018 10.3169 2.09635 9.92659 1.80543L9.92657 1.80542C8.98792 1.10601 7.91796 0.75 6.75264 0.75C5.20011 0.75 3.76678 1.34964 2.72149 2.44189L2.72148 2.4419C1.68893 3.52097 1.125 4.99026 1.125 6.57362C1.125 8.21682 1.76412 9.70826 3.09473 11.2552L3.09473 11.2552C4.27437 12.6264 5.96326 14.013 7.89103 15.5958L7.903 15.6056L7.90493 15.6072L7.90638 15.6084Z" fill="white" stroke="white" stroke-width="0.5"/>
</svg>
