<svg width="212" height="95" viewBox="0 0 212 95" fill="none" xmlns="http://www.w3.org/2000/svg">
<g clip-path="url(#clip0_867_76)">
<path d="M63.8786 20.3204H49.2139V8.94788H63.8786V20.3204ZM63.8786 54.3591H49.2139V23.1044H63.8786V54.3591Z" fill="white"/>
<path d="M102.899 48.7127C102.899 50.3269 102.101 51.6711 100.499 52.7454C98.8966 53.8196 97.2666 54.3596 95.6086 54.3596H77.2986C75.6406 54.3596 74.0664 53.8534 72.5871 52.841C70.8677 51.7105 70.0081 50.3438 70.0081 48.7352V23.1949H66.3628V11.8224H70.0081V8.95398H84.6728V11.8224H102.894V23.1949H84.6728V42.9871H88.2288V25.9677H102.894V48.7183L102.899 48.7127Z" fill="white"/>
<path d="M139.435 48.7127C139.435 50.3269 138.637 51.6711 137.035 52.7454C135.439 53.8196 133.803 54.3596 132.145 54.3596H113.835C112.177 54.3596 110.547 53.8196 108.945 52.7454C107.343 51.6711 106.544 50.3269 106.544 48.7127V40.203H121.209V42.9815H124.765V37.3402H113.829C112.171 37.3402 110.541 36.789 108.939 35.681C107.337 34.5787 106.539 33.2176 106.539 31.6034V14.674C106.539 13.0598 107.371 11.6593 109.029 10.467C110.569 9.45457 112.171 8.94275 113.829 8.94275H132.139C133.797 8.94275 135.399 9.44894 136.94 10.467C138.598 11.6649 139.43 13.0654 139.43 14.674V23.0937H124.765V20.3152H121.209V25.9565H132.145C133.803 25.9565 135.377 26.4964 136.856 27.5707C138.576 28.7068 139.435 30.051 139.435 31.6034V48.7071V48.7127Z" fill="white"/>
<path d="M177.579 54.3596H161.391L157.835 48.2684V54.3596H143.17V8.94836H157.835V15.0396L161.391 8.94836H177.579L163.858 31.564L177.579 54.354V54.3596Z" fill="white"/>
<path d="M212 62.8636C212 64.4778 211.14 65.8502 209.421 66.9807C207.936 67.9931 206.367 68.5049 204.709 68.5049H142.88V57.1324H197.33V54.3539H186.394C184.736 54.3539 183.106 53.814 181.504 52.7397C179.902 51.6655 179.103 50.3213 179.103 48.7071V8.94836H193.768V42.9815H197.324V8.94836H211.989V62.8636H212Z" fill="white"/>
<path d="M63.0106 83.9606C63.6023 83.8594 64.1493 84.045 64.6462 84.5175C64.9755 84.8268 65.1877 85.2486 65.277 85.7942C65.4947 87.0709 65.3719 88.477 64.9085 90.0125C64.434 91.6323 63.6023 92.5434 62.4132 92.7515C61.174 92.9653 60.4315 92.3635 60.1915 90.9517C59.9514 89.54 60.1412 88.0214 60.7553 86.4072C61.3135 84.9393 62.0616 84.1237 63.0106 83.9606Z" fill="white"/>
<path d="M84.8323 61.2325C86.7972 58.8815 88.6952 57.5485 90.5318 57.2336C91.665 57.0367 92.6754 57.3573 93.5686 58.1841C94.3836 58.9096 94.8916 59.832 95.0758 60.9456C95.4331 63.066 95.1819 65.7545 94.3166 69.011C93.3453 72.6218 91.6427 76.1202 89.2144 79.5005C87.2159 82.307 85.1225 83.8987 82.9398 84.2699C82.1304 84.4105 81.3712 84.388 80.6567 84.2024C79.9421 84.0168 79.2834 83.6681 78.6694 83.1563C78.5187 83.5725 78.4238 83.8425 78.3903 83.9606C78.1 85.0461 77.8879 85.7154 77.7483 85.9572C77.6087 86.2047 77.3519 86.3622 76.9724 86.4241C76.4867 86.5084 75.9787 86.3003 75.4484 85.8054C75.0855 85.4735 74.8678 85.0911 74.7952 84.658C74.6668 83.8987 75.5656 79.7817 77.4971 72.3125C80.2045 61.8849 83.6097 51.3898 87.7127 40.8329C89.3707 36.519 90.3978 33.9768 90.7998 33.2062C91.2296 32.2951 91.6874 31.7945 92.173 31.7102C92.7647 31.6089 93.3453 31.817 93.9035 32.3345C94.2664 32.6663 94.4897 33.0881 94.579 33.6056C94.6739 34.1793 94.5399 34.9442 94.1771 35.9003C94.0989 36.1084 93.4849 37.6551 92.3349 40.5404C88.7343 48.9939 86.239 55.8893 84.8323 61.2212V61.2325ZM80.9972 80.0741C81.4605 80.2766 81.9239 80.3329 82.3816 80.2541C84.7318 79.8492 86.8642 77.3688 88.7901 72.8131C89.6945 70.7546 90.3364 68.7579 90.7328 66.8119C91.0789 65.0739 91.1849 63.8085 91.051 63.021C90.9561 62.4755 90.7719 62.0986 90.4816 61.8793C90.1969 61.6599 89.7949 61.5981 89.2814 61.6881C88.0365 61.9018 86.6856 63.0154 85.223 65.0289C83.7549 67.02 82.4374 69.7478 81.2763 73.2237C80.7237 74.8885 80.2659 76.4352 79.8975 77.8694L79.557 79.0618C80.0538 79.5398 80.5339 79.8717 80.9972 80.0741Z" fill="white"/>
<path d="M101.746 72.3125L101.869 73.0493C101.97 73.6455 102.204 74.1405 102.578 74.5229C103.421 75.4116 104.616 75.7265 106.151 75.4622C109.522 74.8829 112.983 71.6039 116.528 65.6195C117.159 64.5903 117.745 64.0278 118.287 63.9322C118.583 63.8816 118.878 63.9828 119.174 64.2416C119.375 64.4328 119.487 64.624 119.52 64.8096C119.699 65.8726 118.705 67.8862 116.545 70.8615C114.854 73.1956 112.972 75.1866 110.89 76.8289C108.808 78.4712 106.781 79.4667 104.811 79.8042C102.785 80.1529 101.076 79.7198 99.6752 78.505C98.7262 77.6613 98.1121 76.3958 97.8274 74.7085C97.0515 70.1134 98.4359 65.2427 101.981 60.102C104.856 55.9119 107.591 53.5946 110.181 53.1503C110.884 53.0322 111.554 53.139 112.196 53.4765C112.995 53.9265 113.475 54.6126 113.631 55.5406C113.877 56.9805 113.514 58.8647 112.542 61.1875C110.55 66.0076 106.955 69.7197 101.757 72.3182L101.746 72.3125ZM102.103 68.9773C103.884 67.9986 105.241 67.0088 106.184 66.0076C107.825 64.2134 109.042 62.3011 109.835 60.2595C110.131 59.5396 110.231 58.9209 110.148 58.4035C110.058 57.8579 109.751 57.6329 109.243 57.7173C108.54 57.8354 107.63 58.5384 106.514 59.8208C104.509 62.0987 103.041 65.1471 102.103 68.9773Z" fill="white"/>
<path d="M133.046 47.9589C131.757 51.0073 130.657 54.3595 129.747 58.0153C128.435 63.2235 127.978 67.0256 128.385 69.4159C128.502 70.0965 128.731 70.5858 129.072 70.8951C129.418 71.1989 129.87 71.3057 130.44 71.2045C131.79 70.9739 133.208 69.4159 134.688 66.5306C135.637 64.7421 136.446 62.9816 137.127 61.2437C137.49 60.2594 137.964 59.7139 138.562 59.6126C138.913 59.5508 139.232 59.6239 139.516 59.8264C139.773 60.0345 139.924 60.2594 139.963 60.5069C140.13 61.5137 139.204 63.9828 137.172 67.9142C134.749 72.6387 132.243 75.2259 129.652 75.6702C128.274 75.9064 127.018 75.4621 125.884 74.3429C125.181 73.623 124.701 72.5149 124.45 71.0189C123.891 67.7286 124.187 63.7297 125.337 59.0277C125.611 57.8635 126.437 55.0175 127.81 50.5012C127.112 50.8161 126.577 51.0073 126.197 51.0692C125.628 51.1648 125.108 51.1142 124.628 50.9174C123.97 50.6418 123.59 50.2143 123.495 49.6406C123.378 48.9601 123.679 48.3526 124.394 47.8071C124.589 47.6608 125.561 47.3121 127.302 46.7609C127.933 46.5416 128.832 46.1198 130.004 45.5011C130.657 43.6282 131.802 41.0353 133.443 37.7338C134.353 35.9003 135 34.6967 135.374 34.1286C135.91 33.3356 136.418 32.9025 136.904 32.8181C137.256 32.7562 137.641 32.8856 138.054 33.2062C138.439 33.5043 138.657 33.8305 138.718 34.1848C138.835 34.8935 138.316 36.4233 137.161 38.7743C136.39 40.3042 135.838 41.5359 135.492 42.4583C138.35 41.1253 140.426 40.3492 141.721 40.1298C143.206 39.8767 144.055 40.3717 144.267 41.6259C144.373 42.2502 144.194 42.7564 143.731 43.1445C143.491 43.3526 142.81 43.6113 141.693 43.915C141.23 43.9656 139.276 44.8318 135.843 46.5135C134.894 46.9859 133.962 47.464 133.046 47.9589Z" fill="white"/>
<path d="M61.9495 94.4783C60.1576 94.4783 58.8848 93.2634 58.5387 91.233C58.2484 89.5232 58.4661 87.6953 59.1918 85.7998C59.9734 83.7413 61.1624 82.5658 62.7255 82.2959C62.9208 82.2621 63.1218 82.2452 63.3172 82.2452C64.2215 82.2452 65.0756 82.6052 65.7957 83.2914C66.3875 83.8426 66.7726 84.5962 66.9289 85.513C67.1857 87.0428 67.0462 88.7245 66.5103 90.5074C65.6785 93.3421 63.9759 94.197 62.692 94.4164C62.4352 94.4614 62.1896 94.4839 61.9495 94.4839V94.4783Z" fill="#FF00F9"/>
<path d="M76.7593 88.1339C75.8996 88.1339 75.079 87.7683 74.3031 87.0428C73.6834 86.4803 73.2759 85.7492 73.142 84.9449C73.0415 84.3487 72.8907 83.4488 75.8773 71.8907C78.5903 61.4462 82.0458 50.788 86.1544 40.2198C88.3705 34.4605 89.0125 33.015 89.2972 32.4638C89.5596 31.9014 90.3244 30.3209 91.8874 30.0566C92.0772 30.0229 92.267 30.006 92.4568 30.006C93.3779 30.006 94.2431 30.3772 95.0303 31.1027C95.6555 31.6764 96.0742 32.447 96.2193 33.33C96.37 34.213 96.2081 35.2535 95.728 36.5134C95.6778 36.6484 95.4154 37.3289 93.8803 41.176C91.4241 46.941 89.4758 51.9973 88.0523 56.2999C88.778 55.9343 89.5037 55.6925 90.2406 55.5631C90.5476 55.5125 90.8547 55.4844 91.1561 55.4844C92.468 55.4844 93.657 55.9737 94.6897 56.9355C95.7727 57.8973 96.4593 59.1571 96.7161 60.6588C97.118 63.0436 96.8613 65.9176 95.9234 69.4441C94.9019 73.2406 93.0988 76.9526 90.5644 80.4847C88.3147 83.6456 85.8362 85.4792 83.2125 85.9291C82.7715 86.0023 82.336 86.0416 81.9174 86.0416C81.3368 86.0416 80.773 85.9685 80.2315 85.8279C80.0305 85.7773 79.8352 85.7154 79.6454 85.6423C79.4388 86.3004 79.3104 86.5872 79.1988 86.784C78.9308 87.2677 78.3726 87.892 77.2505 88.0833C77.0887 88.1114 76.9212 88.1226 76.7593 88.1226V88.1339ZM81.4764 78.4318C81.5434 78.4712 81.6048 78.4993 81.655 78.5218C81.7834 78.5781 81.8895 78.6006 81.9899 78.6006C82.029 78.6006 82.0625 78.6006 82.1016 78.5893C83.8154 78.2969 85.5961 76.0696 87.2485 72.155C88.1082 70.1978 88.7222 68.2967 89.0907 66.4744C89.4535 64.6296 89.4535 63.7635 89.4089 63.3866C88.9567 63.5273 88.0021 64.0559 86.573 66.0245C85.2054 67.8693 83.9605 70.4677 82.8608 73.758C82.3249 75.3778 81.8671 76.902 81.5154 78.2856L81.4764 78.4262V78.4318Z" fill="#FF00F9"/>
<path d="M103.504 81.6096C101.634 81.6096 99.9758 80.9966 98.5746 79.7817C97.3186 78.6625 96.5147 77.0595 96.1686 74.9897C95.3201 69.9615 96.8106 64.6296 100.595 59.1346C103.766 54.517 106.809 52.0142 109.89 51.4855C110.169 51.4405 110.443 51.4124 110.716 51.4124C111.492 51.4124 112.246 51.6036 112.96 51.9804C114.244 52.706 115.026 53.8252 115.266 55.2538C115.567 57.0367 115.176 59.1852 114.071 61.8343C112.089 66.6375 108.589 70.4565 103.666 73.2012C103.705 73.263 103.744 73.308 103.772 73.3418C104.006 73.5893 104.363 73.8592 105.145 73.8592C105.368 73.8592 105.608 73.8367 105.865 73.7917C108.718 73.3024 111.821 70.2596 115.087 64.7477C115.673 63.786 116.606 62.5036 118.001 62.2618C118.146 62.2393 118.286 62.2224 118.431 62.2224C118.883 62.2224 119.575 62.3518 120.268 62.9592L120.323 63.0098C120.787 63.4541 121.071 63.966 121.166 64.5171C121.44 66.1257 120.457 68.3192 117.889 71.8513C116.12 74.2979 114.11 76.4183 111.916 78.1506C109.622 79.9617 107.322 81.0753 105.084 81.4634C104.542 81.559 104.012 81.604 103.498 81.604L103.504 81.6096ZM107.596 61.1369C106.887 61.9749 106.245 62.9423 105.681 64.0222C106.435 63.0998 107.076 62.1324 107.596 61.1369Z" fill="#FF00F9"/>
<path d="M128.943 77.4139C127.391 77.4139 125.967 76.7839 124.711 75.5409C123.745 74.5567 123.109 73.1337 122.796 71.3002C122.205 67.7962 122.512 63.5273 123.706 58.6228C123.93 57.6836 124.471 55.7656 125.364 52.796C124.89 52.7679 124.427 52.661 123.991 52.481C122.796 51.9804 122.037 51.0749 121.848 49.9275C121.719 49.1683 121.747 47.7115 123.388 46.4629C123.712 46.2211 124.136 46.0017 126.805 45.1581C127.212 45.0175 127.843 44.725 128.658 44.3088C129.356 42.4415 130.461 39.978 131.946 36.9859C132.901 35.068 133.565 33.8306 133.983 33.195C134.798 31.9858 135.658 31.3221 136.624 31.1534C136.775 31.1309 136.925 31.114 137.076 31.114C137.757 31.114 138.427 31.3671 139.075 31.8677C139.984 32.5707 140.28 33.3581 140.375 33.8981C140.515 34.708 140.414 35.9172 138.812 39.23C139.867 38.8419 140.744 38.5944 141.447 38.4707C141.788 38.4145 142.117 38.3807 142.424 38.3807C144.3 38.3807 145.606 39.4887 145.918 41.3448C146.125 42.5709 145.729 43.6676 144.802 44.4438C144.434 44.7644 143.825 45.085 142.134 45.5462L142.011 45.5799H141.944C141.698 45.6586 140.671 46.0299 136.574 48.0321C135.837 48.3977 135.089 48.7802 134.357 49.1683C133.202 51.9804 132.197 55.0907 131.371 58.426C130.121 63.3811 129.668 66.9863 130.031 69.1348C130.065 69.3373 130.109 69.4666 130.137 69.5454H130.148C130.349 69.5116 131.438 69.1685 133.191 65.7545C134.112 64.0166 134.905 62.2955 135.558 60.6251C136.267 58.6791 137.422 58.0941 138.265 57.9479C138.438 57.9198 138.611 57.9029 138.784 57.9029C139.387 57.9029 139.968 58.0885 140.47 58.4485L140.515 58.4766L140.554 58.5103C141.28 59.1009 141.525 59.7646 141.603 60.2202C141.788 61.2944 141.553 63.0661 138.65 68.6905C135.948 73.9605 133.096 76.7896 129.925 77.3295C129.596 77.3857 129.261 77.4139 128.937 77.4139H128.943Z" fill="#FF00F9"/>
<path d="M63.0106 83.9606C63.6023 83.8594 64.1493 84.045 64.6462 84.5175C64.9755 84.8268 65.1877 85.2486 65.277 85.7942C65.4947 87.0709 65.3719 88.477 64.9085 90.0125C64.434 91.6323 63.6023 92.5434 62.4132 92.7515C61.174 92.9653 60.4315 92.3635 60.1915 90.9517C59.9514 89.54 60.1412 88.0214 60.7553 86.4072C61.3135 84.9393 62.0616 84.1237 63.0106 83.9606Z" fill="white"/>
<path d="M84.8323 61.2325C86.7972 58.8815 88.6952 57.5485 90.5318 57.2336C91.665 57.0367 92.6754 57.3573 93.5686 58.1841C94.3836 58.9096 94.8916 59.832 95.0758 60.9456C95.4331 63.066 95.1819 65.7545 94.3166 69.011C93.3453 72.6218 91.6427 76.1202 89.2144 79.5005C87.2159 82.307 85.1225 83.8987 82.9398 84.2699C82.1304 84.4105 81.3712 84.388 80.6567 84.2024C79.9421 84.0168 79.2834 83.6681 78.6694 83.1563C78.5187 83.5725 78.4238 83.8425 78.3903 83.9606C78.1 85.0461 77.8879 85.7154 77.7483 85.9572C77.6087 86.2047 77.3519 86.3622 76.9724 86.4241C76.4867 86.5084 75.9787 86.3003 75.4484 85.8054C75.0855 85.4735 74.8678 85.0911 74.7952 84.658C74.6668 83.8987 75.5656 79.7817 77.4971 72.3125C80.2045 61.8849 83.6097 51.3898 87.7127 40.8329C89.3707 36.519 90.3978 33.9768 90.7998 33.2062C91.2296 32.2951 91.6874 31.7945 92.173 31.7102C92.7647 31.6089 93.3453 31.817 93.9035 32.3345C94.2664 32.6663 94.4897 33.0881 94.579 33.6056C94.6739 34.1793 94.5399 34.9442 94.1771 35.9003C94.0989 36.1084 93.4849 37.6551 92.3349 40.5404C88.7343 48.9939 86.239 55.8893 84.8323 61.2212V61.2325ZM80.9972 80.0741C81.4605 80.2766 81.9239 80.3329 82.3816 80.2541C84.7318 79.8492 86.8642 77.3688 88.7901 72.8131C89.6945 70.7546 90.3364 68.7579 90.7328 66.8119C91.0789 65.0739 91.1849 63.8085 91.051 63.021C90.9561 62.4755 90.7719 62.0986 90.4816 61.8793C90.1969 61.6599 89.7949 61.5981 89.2814 61.6881C88.0365 61.9018 86.6856 63.0154 85.223 65.0289C83.7549 67.02 82.4374 69.7478 81.2763 73.2237C80.7237 74.8885 80.2659 76.4352 79.8975 77.8694L79.557 79.0618C80.0538 79.5398 80.5339 79.8717 80.9972 80.0741Z" fill="white"/>
<path d="M101.746 72.3125L101.869 73.0493C101.97 73.6455 102.204 74.1405 102.578 74.5229C103.421 75.4116 104.616 75.7265 106.151 75.4622C109.522 74.8829 112.983 71.6039 116.528 65.6195C117.159 64.5903 117.745 64.0278 118.287 63.9322C118.583 63.8816 118.878 63.9828 119.174 64.2416C119.375 64.4328 119.487 64.624 119.52 64.8096C119.699 65.8726 118.705 67.8862 116.545 70.8615C114.854 73.1956 112.972 75.1866 110.89 76.8289C108.808 78.4712 106.781 79.4667 104.811 79.8042C102.785 80.1529 101.076 79.7198 99.6752 78.505C98.7262 77.6613 98.1121 76.3958 97.8274 74.7085C97.0515 70.1134 98.4359 65.2427 101.981 60.102C104.856 55.9119 107.591 53.5946 110.181 53.1503C110.884 53.0322 111.554 53.139 112.196 53.4765C112.995 53.9265 113.475 54.6126 113.631 55.5406C113.877 56.9805 113.514 58.8647 112.542 61.1875C110.55 66.0076 106.955 69.7197 101.757 72.3182L101.746 72.3125ZM102.103 68.9773C103.884 67.9986 105.241 67.0088 106.184 66.0076C107.825 64.2134 109.042 62.3011 109.835 60.2595C110.131 59.5396 110.231 58.9209 110.148 58.4035C110.058 57.8579 109.751 57.6329 109.243 57.7173C108.54 57.8354 107.63 58.5384 106.514 59.8208C104.509 62.0987 103.041 65.1471 102.103 68.9773Z" fill="white"/>
<path d="M133.046 47.9589C131.757 51.0073 130.657 54.3595 129.747 58.0153C128.435 63.2235 127.978 67.0256 128.385 69.4159C128.502 70.0965 128.731 70.5858 129.072 70.8951C129.418 71.1989 129.87 71.3057 130.44 71.2045C131.79 70.9739 133.208 69.4159 134.688 66.5306C135.637 64.7421 136.446 62.9816 137.127 61.2437C137.49 60.2594 137.964 59.7139 138.562 59.6126C138.913 59.5508 139.232 59.6239 139.516 59.8264C139.773 60.0345 139.924 60.2594 139.963 60.5069C140.13 61.5137 139.204 63.9828 137.172 67.9142C134.749 72.6387 132.243 75.2259 129.652 75.6702C128.274 75.9064 127.018 75.4621 125.884 74.3429C125.181 73.623 124.701 72.5149 124.45 71.0189C123.891 67.7286 124.187 63.7297 125.337 59.0277C125.611 57.8635 126.437 55.0175 127.81 50.5012C127.112 50.8161 126.577 51.0073 126.197 51.0692C125.628 51.1648 125.108 51.1142 124.628 50.9174C123.97 50.6418 123.59 50.2143 123.495 49.6406C123.378 48.9601 123.679 48.3526 124.394 47.8071C124.589 47.6608 125.561 47.3121 127.302 46.7609C127.933 46.5416 128.832 46.1198 130.004 45.5011C130.657 43.6282 131.802 41.0353 133.443 37.7338C134.353 35.9003 135 34.6967 135.374 34.1286C135.91 33.3356 136.418 32.9025 136.904 32.8181C137.256 32.7562 137.641 32.8856 138.054 33.2062C138.439 33.5043 138.657 33.8305 138.718 34.1848C138.835 34.8935 138.316 36.4233 137.161 38.7743C136.39 40.3042 135.838 41.5359 135.492 42.4583C138.35 41.1253 140.426 40.3492 141.721 40.1298C143.206 39.8767 144.055 40.3717 144.267 41.6259C144.373 42.2502 144.194 42.7564 143.731 43.1445C143.491 43.3526 142.81 43.6113 141.693 43.915C141.23 43.9656 139.276 44.8318 135.843 46.5135C134.894 46.9859 133.962 47.464 133.046 47.9589Z" fill="white"/>
<path d="M39.8348 29.0724C42.3357 26.9126 43.4466 23.7799 43.067 19.8822C42.2519 11.3331 33.644 9.79204 29.5186 9.35333V0H21.5136V9.00462C20.8381 9.01025 20.1571 9.0215 19.476 9.03275V0H11.4766V9.26334C11.097 9.26897 10.7174 9.27459 10.3378 9.28022L0.211429 9.25772V17.728L1.44512 17.7055C1.88054 17.6999 2.3383 17.6887 2.77372 17.683L2.75697 17.7055H5.48115C6.6646 17.7055 7.26749 18.1161 7.4852 19.0779V44.1795C7.36239 44.86 6.99396 44.9219 6.59203 44.9219H3.41568L3.42685 44.9331C3.13657 44.9331 2.8407 44.9275 2.55601 44.9219L1.51769 44.905L0.00488281 54.0784H8.70215C9.51159 54.0784 10.3099 54.0896 11.1025 54.0952H11.4821V63.4598H19.4816V54.2302C20.1683 54.2415 20.8493 54.2471 21.5248 54.2471V63.4598H29.5242V54.0502C37.4735 53.4541 45.3725 51.2549 46.2991 41.2154C46.8629 35.0792 44.7528 31.0803 39.846 29.0724H39.8348ZM19.6044 34.9949C19.6658 34.9949 19.7217 34.9949 19.7831 34.9949C23.0934 34.9161 29.2507 34.7699 31.7516 37.2277C32.4829 37.9477 32.8401 38.8476 32.8401 39.9893C32.8401 41.0411 32.5052 41.8903 31.8074 42.5821C29.2842 45.0906 22.8087 45.0231 19.6044 44.9781V34.9949ZM29.3009 24.9329C27.2411 26.9745 22.2337 26.9576 19.61 26.9239V18.088C22.2728 18.0205 27.1797 17.8968 29.2563 19.9328C29.9206 20.5852 30.2444 21.4289 30.2444 22.5087C30.2444 23.5099 29.9373 24.3029 29.3009 24.9329Z" fill="white"/>
</g>
<defs>
<clipPath id="clip0_867_76">
<rect width="212" height="94.4783" fill="white"/>
</clipPath>
</defs>
</svg>
