<svg width="47" height="64" viewBox="0 0 47 64" fill="none" xmlns="http://www.w3.org/2000/svg">
<path d="M39.8348 29.0724C42.3357 26.9126 43.4466 23.7799 43.067 19.8822C42.2519 11.3331 33.644 9.79204 29.5186 9.35333V0H21.5136V9.00462C20.8381 9.01025 20.1571 9.0215 19.476 9.03275V0H11.4766V9.26334C11.097 9.26897 10.7174 9.27459 10.3378 9.28022L0.211429 9.25772V17.728L1.44512 17.7055C1.88054 17.6999 2.3383 17.6887 2.77372 17.683L2.75697 17.7055H5.48115C6.6646 17.7055 7.26749 18.1161 7.4852 19.0779V44.1795C7.36239 44.86 6.99396 44.9219 6.59203 44.9219H3.41568L3.42685 44.9331C3.13657 44.9331 2.8407 44.9275 2.55601 44.9219L1.51769 44.905L0.00488281 54.0784H8.70215C9.51159 54.0784 10.3099 54.0896 11.1025 54.0952H11.4821V63.4598H19.4816V54.2302C20.1683 54.2415 20.8493 54.2471 21.5248 54.2471V63.4598H29.5242V54.0502C37.4735 53.4541 45.3725 51.2549 46.2991 41.2154C46.8629 35.0792 44.7528 31.0803 39.846 29.0724H39.8348ZM19.6044 34.9949C19.6658 34.9949 19.7217 34.9949 19.7831 34.9949C23.0934 34.9161 29.2507 34.7699 31.7516 37.2277C32.4829 37.9477 32.8401 38.8476 32.8401 39.9893C32.8401 41.0411 32.5052 41.8903 31.8074 42.5821C29.2842 45.0906 22.8087 45.0231 19.6044 44.9781V34.9949ZM29.3009 24.9329C27.2411 26.9745 22.2337 26.9576 19.61 26.9239V18.088C22.2728 18.0205 27.1797 17.8968 29.2563 19.9328C29.9206 20.5852 30.2444 21.4289 30.2444 22.5087C30.2444 23.5099 29.9373 24.3029 29.3009 24.9329Z" fill="white"/>
</svg>
