<svg width="25" height="24" viewBox="0 0 25 24" fill="none" xmlns="http://www.w3.org/2000/svg">
<g clip-path="url(#clip0_867_136)">
<path d="M12.3299 24.0156C18.9555 24.0156 24.3265 18.6395 24.3265 12.0078C24.3265 5.37607 18.9555 0 12.3299 0C5.70442 0 0.333374 5.37607 0.333374 12.0078C0.333374 18.6395 5.70442 24.0156 12.3299 24.0156Z" fill="#5046AF"/>
<path d="M8.28133 17.2689H15.4103L15.0692 16.1636L15.884 16.8631L16.6308 17.531L17.9903 18.6678V7.9089C17.9679 7.57323 17.8187 7.25862 17.573 7.02879C17.3274 6.79895 17.0035 6.67106 16.6671 6.671H8.28291C7.94829 6.66671 7.62539 6.79407 7.38379 7.02563C7.14219 7.25719 7.00125 7.5744 6.99133 7.9089V16.031C6.99293 16.1975 7.02778 16.3621 7.09383 16.5149C7.15987 16.6678 7.25579 16.806 7.37596 16.9213C7.49612 17.0366 7.6381 17.1267 7.79358 17.1864C7.94905 17.2461 8.11488 17.2742 8.28133 17.2689ZM13.555 9.51311H13.5376H13.555ZM9.7387 10.1447C10.248 9.7563 10.8654 9.53562 11.5055 9.51311L11.5734 9.581C10.4524 9.84785 9.94397 10.35 9.94397 10.35C9.94397 10.35 10.0798 10.2836 10.3166 10.181C11.0676 9.88033 11.8739 9.74271 12.6821 9.77729C13.4903 9.81186 14.2819 10.0178 15.0045 10.3815C15.0045 10.3815 14.4945 9.90785 13.4429 9.61258L13.5361 9.521C14.1661 9.54851 14.7724 9.76899 15.2729 10.1526C15.8548 11.2327 16.1709 12.4359 16.195 13.6626C16.1666 13.6184 15.625 14.4947 14.2277 14.5247C14.2277 14.5247 13.9924 14.2563 13.8234 14.0242C14.6398 13.7905 14.9445 13.3215 14.9445 13.3215C14.7144 13.4572 14.4772 13.5805 14.234 13.691C13.9395 13.8103 13.6337 13.8997 13.3213 13.9578C11.8782 14.1915 11.0698 13.8 10.304 13.4842L10.0434 13.35C10.0434 13.35 10.3466 13.8236 11.1298 14.0526C10.9276 14.2942 10.724 14.5657 10.724 14.5657C9.33133 14.5326 8.82923 13.6626 8.82923 13.6626C8.84882 12.4344 9.16058 11.2285 9.7387 10.1447Z" fill="white"/>
<path d="M13.6449 13.0563C13.8167 13.0479 13.9786 12.9738 14.0973 12.8493C14.2159 12.7247 14.282 12.5594 14.282 12.3874C14.282 12.2154 14.2159 12.05 14.0973 11.9255C13.9786 11.801 13.8167 11.7269 13.6449 11.7185C13.4677 11.7185 13.2978 11.7889 13.1725 11.9142C13.0472 12.0395 12.9768 12.2094 12.9768 12.3866C12.9768 12.5638 13.0472 12.7337 13.1725 12.859C13.2978 12.9843 13.4677 13.0547 13.6449 13.0547V13.0563Z" fill="white"/>
<path d="M11.3354 13.0563C11.5072 13.0479 11.6692 12.9738 11.7878 12.8493C11.9064 12.7247 11.9726 12.5594 11.9726 12.3874C11.9726 12.2154 11.9064 12.05 11.7878 11.9255C11.6692 11.801 11.5072 11.7269 11.3354 11.7185C11.1583 11.7185 10.9883 11.7889 10.863 11.9142C10.7377 12.0395 10.6674 12.2094 10.6674 12.3866C10.6674 12.5638 10.7377 12.7337 10.863 12.859C10.9883 12.9843 11.1583 13.0547 11.3354 13.0547V13.0563Z" fill="white"/>
</g>
<defs>
<clipPath id="clip0_867_136">
<rect width="24" height="24" fill="white" transform="translate(0.333374)"/>
</clipPath>
</defs>
</svg>
