<svg width="25" height="24" viewBox="0 0 25 24" fill="none" xmlns="http://www.w3.org/2000/svg">
<g clip-path="url(#clip0_867_150)">
<path d="M24.3263 12.0075C24.3263 5.37582 18.9552 -0.000244141 12.3297 -0.000244141C5.70418 -0.000244141 0.33313 5.37582 0.33313 12.0075C0.33313 18.6393 5.70418 24.0153 12.3297 24.0153C18.9552 24.0153 24.3263 18.6393 24.3263 12.0075Z" fill="url(#paint0_linear_867_150)"/>
<path opacity="0.1" d="M21.3648 4.10502C19.6153 7.31659 17.1411 10.6292 14.0496 13.7208C10.958 16.8124 7.64534 19.2819 4.4385 21.0313C4.23745 20.8566 4.04219 20.6745 3.85271 20.485C2.70743 19.378 1.79402 18.054 1.16572 16.5903C0.53742 15.1266 0.206818 13.5524 0.193188 11.9596C0.179559 10.3668 0.483174 8.78723 1.08633 7.31298C1.68949 5.83873 2.58012 4.49932 3.70628 3.37284C4.83245 2.24636 6.17162 1.35535 7.6457 0.751785C9.11978 0.148216 10.6993 -0.15584 12.2921 -0.142655C13.8849 -0.12947 15.4591 0.200693 16.923 0.828582C18.3869 1.45647 19.7111 2.36952 20.8185 3.51449C21.008 3.70396 21.1901 3.90081 21.3648 4.10502Z" fill="white"/>
<path d="M15.1745 5.68408H9.49029C8.56901 5.68408 7.68546 6.05006 7.03402 6.7015C6.38258 7.35294 6.0166 8.23649 6.0166 9.15777V14.842C6.0166 15.7633 6.38258 16.6468 7.03402 17.2982C7.68546 17.9497 8.56901 18.3157 9.49029 18.3157H15.1745C16.0958 18.3157 16.9793 17.9497 17.6308 17.2982C18.2822 16.6468 18.6482 15.7633 18.6482 14.842V9.15777C18.6482 8.23649 18.2822 7.35294 17.6308 6.7015C16.9793 6.05006 16.0958 5.68408 15.1745 5.68408ZM17.5429 14.343C17.5429 15.1035 17.2408 15.8328 16.7031 16.3706C16.1653 16.9083 15.436 17.2104 14.6755 17.2104H9.98923C9.22876 17.2104 8.49943 16.9083 7.9617 16.3706C7.42396 15.8328 7.12186 15.1035 7.12186 14.343V9.65671C7.12186 8.89624 7.42396 8.16691 7.9617 7.62918C8.49943 7.09144 9.22876 6.78935 9.98923 6.78935H14.6755C15.436 6.78935 16.1653 7.09144 16.7031 7.62918C17.2408 8.16691 17.5429 8.89624 17.5429 9.65671V14.343Z" fill="white"/>
<path d="M14.6363 9.72001L14.6063 9.69001L14.581 9.66475C13.984 9.06981 13.1754 8.73593 12.3326 8.73633C11.907 8.73922 11.4861 8.82595 11.094 8.99155C10.7019 9.15715 10.3463 9.39838 10.0475 9.70147C9.74864 10.0046 9.51245 10.3635 9.35241 10.7579C9.19236 11.1523 9.11159 11.5744 9.11471 12C9.11407 12.8638 9.45455 13.6929 10.0621 14.3069C10.3597 14.6081 10.7143 14.847 11.1052 15.0096C11.4961 15.1723 11.9155 15.2554 12.3389 15.2542C12.974 15.2409 13.5915 15.0431 14.1161 14.6848C14.6407 14.3266 15.0498 13.8234 15.2933 13.2367C15.5369 12.65 15.6044 12.0051 15.4878 11.3807C15.3711 10.7562 15.0753 10.1792 14.6363 9.72001ZM12.3326 14.1411C11.9079 14.147 11.4911 14.0265 11.135 13.7949C10.779 13.5633 10.4999 13.231 10.3333 12.8404C10.1666 12.4497 10.1199 12.0183 10.1991 11.601C10.2783 11.1837 10.4798 10.7994 10.778 10.497C11.0762 10.1945 11.4576 9.98763 11.8737 9.90256C12.2899 9.81749 12.7219 9.8581 13.1149 10.0192C13.5078 10.1804 13.844 10.4547 14.0806 10.8074C14.3173 11.1602 14.4436 11.5753 14.4437 12C14.4457 12.2792 14.3928 12.5561 14.2878 12.8149C14.1828 13.0736 14.0279 13.3092 13.8318 13.508C13.6358 13.7068 13.4024 13.8651 13.1452 13.9737C12.888 14.0823 12.6118 14.1392 12.3326 14.1411Z" fill="white"/>
<path d="M16.5052 8.58641C16.5061 8.68775 16.4869 8.78827 16.4488 8.8822C16.4108 8.97614 16.3545 9.06164 16.2834 9.13382C16.2122 9.206 16.1276 9.26343 16.0342 9.30284C15.9408 9.34225 15.8406 9.36285 15.7392 9.36347C15.6387 9.36342 15.5392 9.34344 15.4465 9.30467C15.3538 9.2659 15.2697 9.20912 15.1991 9.13761C15.0921 9.02905 15.0193 8.89147 14.9897 8.74194C14.9602 8.5924 14.9752 8.43748 15.0329 8.29639C15.0906 8.15529 15.1884 8.03423 15.3142 7.94822C15.4401 7.8622 15.5884 7.81501 15.7408 7.8125C15.9192 7.81247 16.0919 7.87507 16.2288 7.98939L16.2446 8.00519C16.2701 8.02592 16.2934 8.04921 16.3141 8.07468L16.3315 8.09363C16.4445 8.23291 16.5059 8.40702 16.5052 8.58641Z" fill="white"/>
</g>
<defs>
<linearGradient id="paint0_linear_867_150" x1="3.84686" y1="3.51677" x2="20.8284" y2="20.4824" gradientUnits="userSpaceOnUse">
<stop stop-color="#FAE100"/>
<stop offset="0.15" stop-color="#FCB720"/>
<stop offset="0.3" stop-color="#FF7950"/>
<stop offset="0.5" stop-color="#FF1C74"/>
<stop offset="1" stop-color="#6C1CD1"/>
</linearGradient>
<clipPath id="clip0_867_150">
<rect width="24" height="24" fill="white" transform="translate(0.333374)"/>
</clipPath>
</defs>
</svg>
