<svg width="25" height="24" viewBox="0 0 25 24" fill="none" xmlns="http://www.w3.org/2000/svg">
<g clip-path="url(#clip0_867_133)">
<path d="M12.3299 24.0156C18.9555 24.0156 24.3265 18.6395 24.3265 12.0078C24.3265 5.37607 18.9555 0 12.3299 0C5.70442 0 0.333374 5.37607 0.333374 12.0078C0.333374 18.6395 5.70442 24.0156 12.3299 24.0156Z" fill="#039BE5"/>
<path d="M7.78911 11.3845L16.4691 8.04092C16.872 7.89552 17.2238 8.13911 17.0933 8.74771L17.094 8.74696L15.6161 15.7032C15.5066 16.1964 15.2132 16.3163 14.8029 16.084L12.5522 14.4268L11.4667 15.4716C11.3466 15.5915 11.2453 15.6927 11.0128 15.6927L11.1726 13.4044L15.3438 9.63963C15.5253 9.47999 15.3033 9.39005 15.0639 9.54894L9.90921 12.7913L7.68708 12.0988C7.20469 11.9459 7.19419 11.6169 7.78911 11.3845Z" fill="white"/>
</g>
<defs>
<clipPath id="clip0_867_133">
<rect width="24" height="24" fill="white" transform="translate(0.333374)"/>
</clipPath>
</defs>
</svg>
