<svg width="25" height="24" viewBox="0 0 25 24" fill="none" xmlns="http://www.w3.org/2000/svg">
<g clip-path="url(#clip0_867_144)">
<path d="M12.3299 24.0156C18.9555 24.0156 24.3265 18.6395 24.3265 12.0078C24.3265 5.37607 18.9555 0 12.3299 0C5.70442 0 0.333374 5.37607 0.333374 12.0078C0.333374 18.6395 5.70442 24.0156 12.3299 24.0156Z" fill="#03A9F4"/>
<path d="M20.314 8.09327C19.7624 8.33599 19.1789 8.49724 18.5815 8.57203C19.2112 8.19583 19.6819 7.59982 19.9043 6.89711C19.315 7.24956 18.6701 7.49778 17.9976 7.63101C17.5855 7.18699 17.0503 6.87819 16.4617 6.74476C15.873 6.61133 15.2582 6.65945 14.697 6.88287C14.1359 7.10629 13.6545 7.49466 13.3154 7.99747C12.9763 8.50029 12.7953 9.09427 12.7958 9.70216C12.7937 9.93419 12.8171 10.1657 12.8658 10.3925C11.6696 10.3333 10.4992 10.0206 9.43114 9.47463C8.36307 8.92869 7.42133 8.16188 6.66742 7.22429C6.27991 7.89127 6.15985 8.68218 6.33179 9.43537C6.50373 10.1886 6.95469 10.8471 7.59248 11.2765C7.11643 11.2636 6.65046 11.1354 6.23394 10.9028V10.9358C6.23528 11.635 6.47546 12.3123 6.91412 12.854C7.35278 13.3957 7.96316 13.7688 8.64268 13.9105C8.38552 13.9786 8.12053 14.0119 7.85466 14.0095C7.66322 14.0131 7.47195 13.996 7.28413 13.9585C7.47881 14.5598 7.8536 15.0855 8.35697 15.4634C8.86033 15.8412 9.46754 16.0527 10.0951 16.0687C9.03166 16.9061 7.7207 17.361 6.37098 17.3609C6.13049 17.363 5.89013 17.3489 5.65149 17.3189C7.02772 18.2128 8.63189 18.6852 10.2694 18.6786C15.8034 18.6786 18.8288 14.0606 18.8288 10.0579C18.8288 9.92428 18.8288 9.79521 18.8184 9.66614C19.4076 9.23771 19.9144 8.70472 20.314 8.09327Z" fill="white"/>
</g>
<defs>
<clipPath id="clip0_867_144">
<rect width="24" height="24" fill="white" transform="translate(0.333374)"/>
</clipPath>
</defs>
</svg>
