<svg width="25" height="24" viewBox="0 0 25 24" fill="none" xmlns="http://www.w3.org/2000/svg">
<g clip-path="url(#clip0_867_161)">
<path d="M12.3299 24.0156C18.9555 24.0156 24.3265 18.6395 24.3265 12.0078C24.3265 5.37607 18.9555 0 12.3299 0C5.70442 0 0.333374 5.37607 0.333374 12.0078C0.333374 18.6395 5.70442 24.0156 12.3299 24.0156Z" fill="#FF0000"/>
<path d="M14.9969 9H9.10497C8.86951 9 8.63636 9.04635 8.41884 9.13641C8.20132 9.22647 8.00369 9.35846 7.83726 9.52486C7.67082 9.69125 7.53883 9.88878 7.44883 10.1062C7.35883 10.3235 7.31259 10.5565 7.31274 10.7917V13.9752C7.31259 14.2104 7.35883 14.4434 7.44883 14.6608C7.53883 14.8781 7.67082 15.0757 7.83726 15.2421C8.00369 15.4085 8.20132 15.5405 8.41884 15.6305C8.63636 15.7206 8.86951 15.7669 9.10497 15.7669H14.9969C15.2324 15.7669 15.4655 15.7206 15.683 15.6305C15.9006 15.5405 16.0982 15.4085 16.2646 15.2421C16.4311 15.0757 16.5631 14.8781 16.653 14.6608C16.743 14.4434 16.7893 14.2104 16.7891 13.9752V10.7917C16.7893 10.5565 16.743 10.3235 16.653 10.1062C16.5631 9.88878 16.4311 9.69125 16.2646 9.52486C16.0982 9.35846 15.9006 9.22647 15.683 9.13641C15.4655 9.04635 15.2324 9 14.9969 9ZM10.8024 13.8344V10.9326L13.2995 12.3835L10.8024 13.8344Z" fill="white"/>
</g>
<defs>
<clipPath id="clip0_867_161">
<rect width="24" height="24" fill="white" transform="translate(0.333374)"/>
</clipPath>
</defs>
</svg>
